# xmcd CD database file
#
# Track frame offsets:
#	150
#	18525
#	35476
#	48976
#	61876
#	81452
#	101703
#
# Disc length: 1538 seconds
#
# Revision: 0
# Processed by: cddbd v1.5.1PL2 Copyright (c) Steve Scherf et al.
# Submitted via: CDex 1.51
#
DISCID=58060007
DTITLE=INSPi - インスピ・復刻盤
DYEAR=2005
DGENRE=A Cappella
TTITLE0=そして僕は途方に暮れる
TTITLE1=木綿のハンカチーフ
TTITLE2=君といつまでも
TTITLE3=恋のバカンス
TTITLE4=夏の終わりのハーモニー
TTITLE5=夢を信じて
TTITLE6=Close To You
EXTD=YEAR: 2005
EXTT0=
EXTT1=
EXTT2=
EXTT3=
EXTT4=
EXTT5=
EXTT6=
PLAYORDER=
